Coordinates
version=1
nRows=65
nColumns=12
inDegrees=yes

Units are S.I. units (second, meters, Newtons, ...)
Angles are in degrees

endheader
time	SC_y	SC_z	SC_x	AC_y	AC_z	AC_x	GH_y	GH_z	GH_yy	EL_x	PS_y
       0.0               -25.4         -2.806          70.38          63.65          -9.11          3.357          166.6          -1.27          66.66           63.1          57.78
  0.004731               -25.4         -2.805          70.37          63.65         -9.107          3.359          166.6         -1.272          66.67          63.09          57.78
  0.009461              -25.39         -2.803          70.36          63.65         -9.105          3.361          166.5         -1.275          66.67          63.08          57.78
   0.01419              -25.39         -2.801          70.35          63.64         -9.102          3.362          166.5         -1.277          66.68          63.07          57.78
   0.01892              -25.39         -2.799          70.34          63.64           -9.1          3.364          166.4         -1.279          66.69          63.06          57.78
   0.02365              -25.39         -2.796          70.33          63.64         -9.097          3.366          166.4         -1.282           66.7          63.05          57.78
   0.02838              -25.39         -2.794          70.31          63.64         -9.094          3.369          166.3         -1.285          66.71          63.04          57.78
   0.03311              -25.39         -2.791           70.3          63.64          -9.09          3.371          166.2         -1.288          66.72          63.03          57.78
   0.03784              -25.39         -2.789          70.29          63.63         -9.087          3.373          166.1         -1.291          66.73          63.01          57.78
   0.04258              -25.38         -2.786          70.27          63.63         -9.083          3.376          166.1         -1.295          66.74           63.0          57.78
   0.04731              -25.38         -2.782          70.25          63.63         -9.079          3.379          166.0         -1.298          66.75          62.99          57.78
   0.05204              -25.38         -2.779          70.23          63.62         -9.074          3.382          165.9         -1.302          66.76          62.97          57.78
   0.05677              -25.38         -2.775          70.21          63.62          -9.07          3.385          165.8         -1.307          66.78          62.95          57.79
    0.0615              -25.37         -2.771          70.19          63.62         -9.065          3.389          165.7         -1.311          66.79          62.94          57.79
   0.06623              -25.37         -2.767          70.17          63.61         -9.059          3.393          165.5         -1.316          66.81          62.92          57.79
   0.07096              -25.37         -2.762          70.14          63.61         -9.053          3.397          165.4         -1.322          66.83          62.89          57.79
   0.07569              -25.36         -2.757          70.12           63.6         -9.046          3.401          165.3         -1.328          66.84          62.87          57.79
   0.08042              -25.36         -2.752          70.09           63.6         -9.039          3.406          165.1         -1.334          66.87          62.85          57.79
   0.08515              -25.36         -2.746          70.05          63.59         -9.031          3.412          164.9         -1.341          66.89          62.82          57.79
   0.08988              -25.35         -2.739          70.02          63.59         -9.023          3.418          164.7         -1.349          66.91          62.79          57.79
   0.09461              -25.35         -2.732          69.98          63.58         -9.014          3.424          164.5         -1.358          66.94          62.75          57.79
   0.09934              -25.34         -2.724          69.93          63.57         -9.003          3.431          164.3         -1.367          66.97          62.72           57.8
    0.1041              -25.34         -2.715          69.89          63.57         -8.992          3.439          164.1         -1.377           67.0          62.68           57.8
    0.1088              -25.33         -2.705          69.83          63.56         -8.979          3.448          163.8         -1.389          67.04          62.63           57.8
    0.1135              -25.32         -2.694          69.77          63.55         -8.965          3.458          163.5         -1.401          67.08          62.58           57.8
    0.1183              -25.32         -2.682          69.71          63.53          -8.95          3.469          163.1         -1.416          67.13          62.53           57.8
     0.123              -25.31         -2.668          69.63          63.52         -8.932          3.481          162.8         -1.432          67.18          62.46          57.81
    0.1277               -25.3         -2.653          69.55          63.51         -8.912          3.495          162.3          -1.45          67.24          62.39          57.81
    0.1325              -25.28         -2.635          69.46          63.49          -8.89           3.51          161.9          -1.47           67.3          62.31          57.81
    0.1372              -25.27         -2.616          69.35          63.47         -8.865          3.528          161.3         -1.493          67.38          62.22          57.82
    0.1419              -25.26         -2.593          69.23          63.45         -8.836          3.548          160.7         -1.519          67.46          62.12          57.82
    0.1466              -25.24         -2.567          69.09          63.43         -8.803          3.571          160.0         -1.549          67.56           62.0          57.83
    0.1514              -25.22         -2.538          68.93           63.4         -8.765          3.597          159.1         -1.584          67.67          61.86          57.83
    0.1561               -25.2         -2.503          68.74          63.37          -8.72          3.628          158.2         -1.624           67.8          61.71          57.84
    0.1608              -25.17         -2.463          68.52          63.33         -8.668          3.664          157.0         -1.672          67.96          61.52          57.85
    0.1656              -25.14         -2.415          68.26          63.29         -8.607          3.707          155.7         -1.727          68.14           61.3          57.86
    0.1703               -25.1         -2.358          67.95          63.24         -8.534          3.758          154.1         -1.794          68.35          61.04          57.87
     0.175              -25.06          -2.29          67.58          63.17         -8.447          3.818          152.2         -1.873          68.61          60.73          57.89
    0.1798               -25.0         -2.208          67.14           63.1         -8.341          3.892          149.9         -1.969          68.92          60.35           57.9
    0.1845              -24.94         -2.107          66.59           63.0         -8.212          3.982          147.1         -2.086           69.3          59.89          57.92
    0.1892              -24.85         -1.983          65.92          62.89         -8.053          4.092          143.6         -2.231          69.77          59.32          57.95
     0.194              -24.75         -1.828          65.08          62.75         -7.854           4.23          139.3         -2.412          70.35          58.61          57.98
    0.1987              -24.62         -1.634          64.03          62.57         -7.604          4.404          133.8         -2.639          71.08          57.72          58.02
    0.2034              -24.46         -1.386          62.69          62.34         -7.286          4.626          126.9         -2.928          72.02          56.58          58.07
    0.2081              -24.25         -1.069          60.97          62.05         -6.879          4.909          118.1         -3.298          73.22          55.13          58.14
    0.2129              -23.98        -0.6618          58.76          61.67         -6.357          5.272          106.7         -3.773          74.75          53.26          58.22
    0.2176              -23.64         -0.142          55.95          61.19          -5.69          5.736          92.15          -4.38          76.71          50.88          58.33
    0.2223              -23.21         0.5116           52.4          60.59         -4.851          6.319          73.88         -5.143          79.18          47.88          58.47
    0.2271              -22.68          1.308          48.09          59.85         -3.829          7.031          51.61         -6.072          82.18          44.23          58.63
    0.2318              -22.07          2.231          43.09           59.0         -2.644          7.855           25.8          -7.15          85.67           40.0          58.82
    0.2365              -21.41          3.231          37.67          58.08         -1.361          8.747         -2.141         -8.316          89.44          35.41          59.03
    0.2413              -20.75          4.231          32.25          57.16       -0.07811           9.64         -30.09         -9.483          93.21          30.83          59.23
     0.246              -20.15          5.154          27.25          56.31          1.107          10.46         -55.89         -10.56           96.7          26.59          59.43
    0.2507              -19.62          5.951          22.94          55.57          2.129          11.17         -78.16         -11.49           99.7          22.94          59.59
    0.2555              -19.19          6.604          19.39          54.97          2.968          11.76         -96.43         -12.25          102.2          19.94          59.73
    0.2602              -18.85          7.124          16.58          54.49          3.635          12.22         -111.0         -12.86          104.1          17.56          59.83
    0.2649              -18.58          7.531          14.37          54.11          4.157          12.59         -122.3         -13.33          105.7          15.69          59.92
    0.2696              -18.37          7.848          12.66          53.82          4.564          12.87         -131.2          -13.7          106.9          14.24          59.98
    0.2744               -18.2          8.096          11.31          53.59          4.882          13.09         -138.1         -13.99          107.8           13.1          60.03
    0.2791              -18.08          8.291          10.26          53.41          5.132          13.26         -143.6         -14.22          108.5          12.21          60.07
    0.2838              -17.97          8.445          9.418          53.27          5.331           13.4         -147.9          -14.4          109.1           11.5          60.11
    0.2886              -17.89          8.569          8.746          53.16           5.49          13.51         -151.4         -14.55          109.6          10.93          60.13
    0.2933              -17.83           8.67          8.202          53.06          5.619           13.6         -154.2         -14.66          110.0          10.47          60.15
     0.298              -17.77          8.752          7.756          52.99          5.725          13.68         -156.5         -14.76          110.3          10.09          60.17
    0.3028              -17.73           8.82          7.387          52.92          5.812          13.74         -158.4         -14.84          110.5          9.782          60.18
